<svg id="misakaNS-Logo" data-name="frame" xmlns="http://www.w3.org/2000/svg" viewBox="0 0 48.25 6.5"><defs><style>.cls-1{fill:#0a0;}.cls-2{fill:#f55;}.cls-3{fill:#55f;}</style></defs><path d="M4872.58355,3066.60721a.43257.43257,0,0,1-.09712.2639.33516.33516,0,0,1-.24067.07389.32461.32461,0,0,1-.2639-.10345.57234.57234,0,0,1-.09923-.33568l-.05489-.97959v-.076a.41965.41965,0,0,1,.07812-.28712.34066.34066,0,0,1,.25967-.08445q.25335,0,.36313.36312a1.62431,1.62431,0,0,0,.09711.27446,1.01113,1.01113,0,0,0,.46658.456,1.67788,1.67788,0,0,0,.76213.16046,1.42564,1.42564,0,0,0,.88459-.25757.79244.79244,0,0,0,.3399-.65869.71286.71286,0,0,0-.209-.53624,1.07894,1.07894,0,0,0-.61014-.26179l-.62491-.08445a2.53023,2.53023,0,0,1-1.27516-.46024,1.17374,1.17374,0,0,1-.40112-.95,1.35267,1.35267,0,0,1,.53413-1.08515,2.02819,2.02819,0,0,1,1.33216-.43913,2.11984,2.11984,0,0,1,.48979.06122,4.16764,4.16764,0,0,1,.58269.19212.22512.22512,0,0,1,.06756-.16889.33542.33542,0,0,1,.20267-.04645.442.442,0,0,1,.25757.05489.37326.37326,0,0,1,.08867.26179l.05911.88248v.04222a.30663.30663,0,0,1-.08444.23012.32449.32449,0,0,1-.23646.08234q-.22379,0-.34623-.31246a1.15827,1.15827,0,0,0-.11823-.266.89194.89194,0,0,0-.40113-.32512,1.47744,1.47744,0,0,0-.59535-.114,1.29359,1.29359,0,0,0-.8297.25334.80649.80649,0,0,0-.31879.66292.60758.60758,0,0,0,.23857.50668,1.53083,1.53083,0,0,0,.72836.25335l.67558.08444a1.93788,1.93788,0,0,1,1.10626.44969,1.25027,1.25027,0,0,1,.37157.95214,1.39231,1.39231,0,0,1-.5278,1.13793,2.17026,2.17026,0,0,1-1.41027.42858,2.58463,2.58463,0,0,1-.6038-.07178A3.61767,3.61767,0,0,1,4872.58355,3066.60721Z" transform="translate(-4827.513 -3060.695)"/><path d="M4839.05786,3064.40313a2.01536,2.01536,0,0,0-.107-.80437.38027.38027,0,0,0-.36876-.209.56852.56852,0,0,0-.494.27023,1.313,1.313,0,0,0-.183.74314v1.75651h.0753a.64463.64463,0,0,1,.34131.06122.26614.26614,0,0,1,.08586.23012.32109.32109,0,0,1-.07178.228.28868.28868,0,0,1-.21957.076H4837.58a.29823.29823,0,0,1-.247-.08444.6617.6617,0,0,1-.06545-.36313v-2.23364a.79216.79216,0,0,0-.14356-.50035.47134.47134,0,0,0-.39268-.18367.59039.59039,0,0,0-.34834.11189.90611.90611,0,0,0-.27235.33146v2.32653h.15482a.63052.63052,0,0,1,.3399.06333.26367.26367,0,0,1,.088.228.31575.31575,0,0,1-.07178.23857.417.417,0,0,1-.27375.06544h-1.12034a.34015.34015,0,0,1-.24208-.07389.30336.30336,0,0,1-.07812-.23012.24984.24984,0,0,1,.09853-.23012.80882.80882,0,0,1,.38353-.06122h.08374v-2.71077h-.0753a.82943.82943,0,0,1-.40042-.06685.25623.25623,0,0,1-.107-.23505.27675.27675,0,0,1,.08444-.22027.37929.37929,0,0,1,.25335-.07318h.646a.252.252,0,0,1,.18367.04855.34654.34654,0,0,1,.05278.20268,1.16241,1.16241,0,0,1,.37228-.273,1.10052,1.10052,0,0,1,.44827-.088.86444.86444,0,0,1,.48839.12808.74676.74676,0,0,1,.28571.38846,1.169,1.169,0,0,1,.40957-.39057,1.10545,1.10545,0,0,1,.53273-.126.90916.90916,0,0,1,.79662.35468,2.02965,2.02965,0,0,1,.25123,1.14849v1.91274h.06686a.64968.64968,0,0,1,.34764.06333.26367.26367,0,0,1,.088.228.30967.30967,0,0,1-.076.228.3034.3034,0,0,1-.22378.076h-.51091a.29837.29837,0,0,1-.24912-.10133.51684.51684,0,0,1-.08023-.3209Z" transform="translate(-4827.513 -3060.695)"/><path d="M4843.07334,3066.15964h1.35539a.35724.35724,0,0,1,.24279.06967.283.283,0,0,1,.07811.22167.30994.30994,0,0,1-.07389.23857.42033.42033,0,0,1-.27235.06544h-3.27234a.3683.3683,0,0,1-.25334-.076.29126.29126,0,0,1-.08445-.228.26573.26573,0,0,1,.08867-.21956.41656.41656,0,0,1,.266-.07178h1.28783v-2.71077h-.82618a.40172.40172,0,0,1-.26531-.07741.27966.27966,0,0,1-.09078-.22449.27676.27676,0,0,1,.08445-.22027.37926.37926,0,0,1,.25334-.07318h1.23716a.30527.30527,0,0,1,.17945.04644.14722.14722,0,0,1,.06544.12667Zm-.78114-4.52217a1.21817,1.21817,0,0,1,.08234-.57424.411.411,0,0,1,.35257-.11823.45135.45135,0,0,1,.34623.09923.82957.82957,0,0,1,.08445.47079.78872.78872,0,0,1-.07811.44968.49409.49409,0,0,1-.35257.08656.53323.53323,0,0,1-.35257-.08022A.48007.48007,0,0,1,4842.2922,3061.63747Z" transform="translate(-4827.513 -3060.695)"/><path d="M4846.029,3066.451v-.75158a.40442.40442,0,0,1,.06967-.266.28458.28458,0,0,1,.2259-.08023q.17311,0,.27445.23646a1.23383,1.23383,0,0,0,.12245.21534,1.20713,1.20713,0,0,0,.52357.36523,2.0569,2.0569,0,0,0,.76426.13723,1.26734,1.26734,0,0,0,.7178-.18156.55206.55206,0,0,0,.27023-.47713.45352.45352,0,0,0-.21745-.42646,1.58171,1.58171,0,0,0-.74525-.12667h-.23223a2.37918,2.37918,0,0,1-1.31316-.29979.97956.97956,0,0,1-.4518-.86981.99547.99547,0,0,1,.44124-.86559,2.14186,2.14186,0,0,1,1.23927-.30823,2.54743,2.54743,0,0,1,.66291.09078q.3378.09078.35468.09078a.4548.4548,0,0,0,.17734-.08234.48228.48228,0,0,1,.25757-.08233.23779.23779,0,0,1,.21323.10556.58047.58047,0,0,1,.06967.31668v.494a.59041.59041,0,0,1-.06756.323.24184.24184,0,0,1-.21534.09922q-.12668,0-.31246-.21534a2.90626,2.90626,0,0,0-.21534-.22379,1.398,1.398,0,0,0-.47713-.29767,1.76506,1.76506,0,0,0-.59535-.09078,1.06908,1.06908,0,0,0-.63969.17522.52944.52944,0,0,0-.24279.44547.39037.39037,0,0,0,.24912.38,3.306,3.306,0,0,0,1.07249.13089,2.36991,2.36991,0,0,1,1.2836.30613,1.00261,1.00261,0,0,1,.40535.88036,1.09027,1.09027,0,0,1-.44758.912,1.941,1.941,0,0,1-1.2076.342,3.6438,3.6438,0,0,1-.53624-.04434q-.29556-.04432-.74314-.14989a2.00975,2.00975,0,0,1-.25334.14567.444.444,0,0,1-.17734.04856.26585.26585,0,0,1-.2259-.10345A.48712.48712,0,0,1,4846.029,3066.451Z" transform="translate(-4827.513 -3060.695)"/><path d="M4854.03042,3066.21875a2.5435,2.5435,0,0,1-.7537.47713,2.21751,2.21751,0,0,1-.83814.16467,1.45325,1.45325,0,0,1-1.01548-.35045,1.174,1.174,0,0,1-.38635-.912,1.19841,1.19841,0,0,1,.513-1.03448,2.44571,2.44571,0,0,1,1.44194-.36735,3.91463,3.91463,0,0,1,.494.03167,4.12938,4.12938,0,0,1,.51091.09923v-.02956a.82967.82967,0,0,0-.95426-.95,1.85682,1.85682,0,0,0-.73469.17734,1.80032,1.80032,0,0,1-.53625.17734.24986.24986,0,0,1-.20267-.09922.39346.39346,0,0,1-.08022-.25546q0-.24912.46657-.42223a3.476,3.476,0,0,1,1.19282-.17312,1.52848,1.52848,0,0,1,1.12315.3779,1.50956,1.50956,0,0,1,.38,1.11682v1.91274h.20689a.84852.84852,0,0,1,.40113.06333.24731.24731,0,0,1,.10134.228.29126.29126,0,0,1-.08445.228.36832.36832,0,0,1-.25334.076h-.66292a.27148.27148,0,0,1-.19423-.07178.369.369,0,0,1-.10133-.20689Zm-.03378-1.33005a3.03924,3.03924,0,0,0-.44969-.11189,2.65327,2.65327,0,0,0-.43279-.03589,2.035,2.035,0,0,0-1.026.21956.66377.66377,0,0,0-.37579.59114.578.578,0,0,0,.23434.4729.93215.93215,0,0,0,.59747.18579,1.868,1.868,0,0,0,.99437-.28079q.45813-.28079.45813-.5848Z" transform="translate(-4827.513 -3060.695)"/><path d="M4857.4801,3065.13782v1.2456a.469.469,0,0,1-.06967.27024.21.21,0,0,1-.17945.10133h-.78114a.36133.36133,0,0,1-.24912-.076.29126.29126,0,0,1-.08445-.228.24862.24862,0,0,1,.09923-.23012.94094.94094,0,0,1,.42435-.06122h.20267v-4.32372h-.17312a1.05389,1.05389,0,0,1-.46868-.06544.258.258,0,0,1-.10556-.23857.2874.2874,0,0,1,.08656-.228.36971.36971,0,0,1,.25123-.076h.80648a.29517.29517,0,0,1,.17733.04645.1487.1487,0,0,1,.06334.12667v3.02744l1.22027-1.02181a.584.584,0,0,1-.20479-.1309.24251.24251,0,0,1-.06544-.16889.21465.21465,0,0,1,.09289-.19.47926.47926,0,0,1,.27023-.06333h1.14426a.36841.36841,0,0,1,.2449.07178.2669.2669,0,0,1,.08445.21534q0,.25333-.40957.29556-.08022.00845-.12667.01689a1.09069,1.09069,0,0,0-.38.133,2.28246,2.28246,0,0,0-.418.29768l-.61225.53624,1.60029,1.73962h.36312a.39627.39627,0,0,1,.25968.06756.282.282,0,0,1,.07811.22378.28866.28866,0,0,1-.08656.2259.363.363,0,0,1-.25123.07811h-1.14426a.455.455,0,0,1-.27024-.06333.23682.23682,0,0,1-.08444-.20268.268.268,0,0,1,.08233-.19634.59046.59046,0,0,1,.247-.133l-1.25405-1.36805Z" transform="translate(-4827.513 -3060.695)"/><path d="M4864.409,3066.21875a2.54333,2.54333,0,0,1-.75369.47713,2.21751,2.21751,0,0,1-.83814.16467,1.45324,1.45324,0,0,1-1.01548-.35045,1.174,1.174,0,0,1-.38635-.912,1.19839,1.19839,0,0,1,.513-1.03448,2.44571,2.44571,0,0,1,1.44194-.36735,3.91475,3.91475,0,0,1,.494.03167,4.12888,4.12888,0,0,1,.5109.09923v-.02956a.82966.82966,0,0,0-.95425-.95,1.85686,1.85686,0,0,0-.7347.17734,1.80029,1.80029,0,0,1-.53624.17734.24986.24986,0,0,1-.20267-.09922.39341.39341,0,0,1-.08023-.25546q0-.24912.46657-.42223a3.476,3.476,0,0,1,1.19283-.17312,1.52849,1.52849,0,0,1,1.12315.3779,1.5096,1.5096,0,0,1,.38,1.11682v1.91274h.2069a.84852.84852,0,0,1,.40113.06333.24733.24733,0,0,1,.10133.228.29129.29129,0,0,1-.08444.228.36833.36833,0,0,1-.25335.076h-.66291a.27147.27147,0,0,1-.19423-.07178.369.369,0,0,1-.10134-.20689Zm-.03378-1.33005a3.03912,3.03912,0,0,0-.44968-.11189,2.65336,2.65336,0,0,0-.43279-.03589,2.035,2.035,0,0,0-1.026.21956.66375.66375,0,0,0-.37579.59114.578.578,0,0,0,.23434.4729.93213.93213,0,0,0,.59747.18579,1.868,1.868,0,0,0,.99437-.28079q.45813-.28079.45812-.5848Z" transform="translate(-4827.513 -3060.695)"/><path d="M4867.47869,3066.15964h.5278a.58889.58889,0,0,1,.32512.06756.25313.25313,0,0,1,.09712.22378.27576.27576,0,0,1-.09078.23857.78134.78134,0,0,1-.399.06544h-1.254a.26872.26872,0,0,1-.304-.304.26442.26442,0,0,1,.08656-.23012.63252.63252,0,0,1,.33568-.06122h.08023v-3.80437h-.10556a1.13626,1.13626,0,0,1-.47924-.06755.24586.24586,0,0,1-.12456-.23646.24888.24888,0,0,1,.10767-.22589.66277.66277,0,0,1,.34835-.06967q.16889-.00844.25334-.00845h.3969a.59508.59508,0,0,1,.27234.04434.62869.62869,0,0,1,.18368.22589l2.12808,3.67347v-3.33568h-.46446a.58011.58011,0,0,1-.33146-.07389.26352.26352,0,0,1-.10345-.23012.279.279,0,0,1,.08867-.23856.69766.69766,0,0,1,.37157-.06545h1.21182a.30219.30219,0,0,1,.2259.076.31519.31519,0,0,1,.07389.228.27654.27654,0,0,1-.09078.23646.585.585,0,0,1-.33146.06755h-.05067v4.25194a.20847.20847,0,0,1-.057.16889.47673.47673,0,0,1-.2639.04645.80307.80307,0,0,1-.25545-.02322.66763.66763,0,0,1-.16256-.21745l-2.24631-3.87193Z" transform="translate(-4827.513 -3060.695)"/><path class="cls-1" d="M4829.013,3064.195a1.5,1.5,0,1,0,1.5,1.5A1.49991,1.49991,0,0,0,4829.013,3064.195Zm0,2.5a1,1,0,1,1,1-1A1,1,0,0,1,4829.013,3066.695Z" transform="translate(-4827.513 -3060.695)"/><path class="cls-2" d="M4829.013,3060.695a1.5,1.5,0,1,0,1.5,1.5A1.49991,1.49991,0,0,0,4829.013,3060.695Zm0,2.5a1,1,0,1,1,1-1A1,1,0,0,1,4829.013,3063.195Z" transform="translate(-4827.513 -3060.695)"/><path d="M4832.513,3064.195a1.5,1.5,0,1,0,1.5,1.5A1.49991,1.49991,0,0,0,4832.513,3064.195Zm0,2.5a1,1,0,1,1,1-1A1,1,0,0,1,4832.513,3066.695Z" transform="translate(-4827.513 -3060.695)"/><path class="cls-3" d="M4832.513,3060.695a1.5,1.5,0,1,0,1.5,1.5A1.49991,1.49991,0,0,0,4832.513,3060.695Zm0,2.5a1,1,0,1,1,1-1A1,1,0,0,1,4832.513,3063.195Z" transform="translate(-4827.513 -3060.695)"/><path d="M4830.763,3063.07a.875.875,0,1,0,.875.875A.875.875,0,0,0,4830.763,3063.07Zm0,1.25a.375.375,0,1,1,.375-.375A.37514.37514,0,0,1,4830.763,3064.32Z" transform="translate(-4827.513 -3060.695)"/></svg>