<svg id="LOGO-MNS" data-name="frame" xmlns="http://www.w3.org/2000/svg" viewBox="0 0 1930 260">
	<defs>
		<style>
			.cls-1{fill:#0a0;}.cls-2{fill:#f55;}.cls-3{fill:#55f;}
		</style>
	</defs>
	<path d="M4407.46,3106.43339q-.84449,7.60027-3.88459,10.55594t-9.627,2.95567q-7.09359,0-10.55594-4.13793t-3.969-13.42717l-2.19563-39.18367v-3.04011q0-8.107,3.12456-11.48487t10.38705-3.3779q10.1337,0,14.525,14.525a64.94328,64.94328,0,0,0,3.88459,10.97818,40.44646,40.44646,0,0,0,18.66291,18.24068q12.75159,6.418,30.48557,6.418,21.78748,0,35.38354-10.3026T4507.277,3058.805q0-13.34272-8.36031-21.44969t-24.40535-10.47149l-24.99648-3.37791q-34.96129-4.898-51.00634-18.40957t-16.045-38.00141q0-25.841,21.36523-43.40605t53.28642-17.56509a84.7818,84.7818,0,0,1,19.59184,2.449,166.669,166.669,0,0,1,23.30753,7.68473q.33779-4.898,2.70232-6.75581t8.107-1.85785q7.43139,0,10.30261,2.19564t3.5468,10.4715l2.36453,35.29908v1.689q0,5.91132-3.3779,9.20478t-9.45813,3.29346q-8.95145,0-13.8494-12.49824a46.33651,46.33651,0,0,0-4.72907-10.6404,35.68051,35.68051,0,0,0-16.045-13.00492,59.10443,59.10443,0,0,0-23.81421-4.56017q-20.43631,0-33.1879,10.13371a32.25812,32.25812,0,0,0-12.75158,26.51653q0,12.836,9.54257,20.26742t29.13442,10.13371l27.02322,3.3779q29.38776,3.8846,44.25053,17.98734T4534.638,3055.596q0,28.37439-21.11189,45.51724t-56.411,17.14286a103.37844,103.37844,0,0,1-24.152-2.87122A144.69856,144.69856,0,0,1,4407.46,3106.43339Z" transform="translate(-2604.638 -2869.945)" />
	<path d="M3066.43251,3018.27012q0-23.81421-4.27868-32.17452c-2.87121-5.57354-7.76917-8.36031-14.75017-8.36031-8.27586,0-14.89092,3.60309-19.76073,10.80929s-7.31879,17.11471-7.31879,29.72554v70.26038h3.012c6.8121,0,11.37227.81633,13.65236,2.449s3.4342,4.70092,3.4342,9.20479q0,6.08022-2.87122,9.12034t-8.78255,3.04011h-21.44968q-7.26249,0-9.88037-3.3779t-2.61787-14.525V3005.0963q0-12.66714-5.74244-20.01407t-15.70724-7.34694a23.61757,23.61757,0,0,0-13.93385,4.47572q-6.33357,4.47572-10.89374,13.25827v93.06122h6.19282c6.72766,0,11.23153.84448,13.59606,2.53343,2.33638,1.689,3.51865,4.72906,3.51865,9.12034q0,6.9247-2.87122,9.54257c-1.91414,1.74525-5.54539,2.61788-10.95,2.61788h-44.81351c-4.39128,0-7.62843-.98522-9.68333-2.95567q-3.12456-2.95566-3.12456-9.20478c0-4.50387,1.323-7.57213,3.94089-9.20479s7.741-2.449,15.34131-2.449h3.34975V2980.09982h-3.012q-11.7382,0-16.01689-2.67417c-2.84307-1.80155-4.27868-4.92611-4.27868-9.40183,0-3.91274,1.126-6.84026,3.37791-8.8107,2.25193-1.94229,5.62983-2.92751,10.13371-2.92751h25.841q5.57355,0,7.34694,1.94229c1.18227,1.26671,1.886,3.99718,2.11119,8.107a46.506,46.506,0,0,1,14.89092-10.92189,44.02252,44.02252,0,0,1,17.931-3.51865q11.86488,0,19.53553,5.12315,7.727,5.10909,11.42858,15.53836,7.09359-10.59818,16.38283-15.6228a44.21452,44.21452,0,0,1,21.30893-5.03871q21.78748,0,31.86489,14.18719,10.04925,14.18719,10.04926,45.93948v76.5095h2.67417c6.9247,0,11.56932.84448,13.9057,2.53343s3.51865,4.72906,3.51865,9.12034q0,6.08022-3.04011,9.12034t-8.95145,3.04011h-20.43631q-6.75581,0-9.96481-4.05348t-3.209-12.836Z" transform="translate(-2604.638 -2869.945)" />
	<path d="M3227.05179,3088.5305h54.21534q6.58692,0,9.71148,2.78677t3.12456,8.867q0,6.9247-2.95567,9.54257t-10.89374,2.61788H3149.36q-6.7558,0-10.13371-3.04011t-3.3779-9.12034q0-5.91134,3.54679-8.78255t10.6404-2.87122h51.513V2980.09982h-33.04715c-4.64462,0-8.16327-1.04152-10.61225-3.09641-2.42083-2.083-3.63124-5.06685-3.63124-8.97959s1.126-6.84026,3.3779-8.8107c2.25193-1.94229,5.62984-2.92751,10.13371-2.92751h49.48627a12.20973,12.20973,0,0,1,7.178,1.85784,5.88868,5.88868,0,0,1,2.61787,5.06686Zm-31.2456-180.8867q0-18.24068,3.29346-22.96974t14.10274-4.72906q10.4715,0,13.8494,3.969t3.37791,18.8318q0,14.525-3.12456,17.98734t-14.10275,3.46235q-10.80928,0-14.10274-3.209T3195.80619,2907.6438Z" transform="translate(-2604.638 -2869.945)" />
	<path d="M3345.27839,3100.18427v-30.06334q0-7.43139,2.78677-10.64039t9.03589-3.209q6.9247,0,10.97819,9.45813a49.31982,49.31982,0,0,0,4.898,8.61365q7.09359,9.12034,20.943,14.60943a82.27759,82.27759,0,0,0,30.57,5.48909q17.90288,0,28.71217-7.26249t10.80929-19.08515q0-11.99155-8.6981-17.05841t-29.81-5.06685h-9.28924q-34.4546,0-52.52639-11.99156t-18.07178-34.7924q0-22.29415,17.64955-34.6235t49.57072-12.32935a101.89811,101.89811,0,0,1,26.51654,3.63125q13.51161,3.63125,14.18719,3.63124,1.85786,0,7.0936-3.29345a19.29028,19.29028,0,0,1,10.3026-3.29346q5.74244,0,8.52921,4.22238t2.78677,12.66714V2989.558q0,8.95145-2.70233,12.92048t-8.61365,3.969q-5.06685,0-12.49824-8.61365a116.24614,116.24614,0,0,0-8.61365-8.95144,55.92137,55.92137,0,0,0-19.08515-11.90711q-10.13371-3.63125-23.81422-3.63125-15.87613,0-25.58761,7.00915t-9.71147,17.81844q0,10.6404,9.96481,15.20056t42.89937,5.23575q35.13018.84449,51.34412,12.2449t16.21393,35.21464q0,22.80084-17.90288,36.48135t-48.304,13.68051a145.76743,145.76743,0,0,1-21.44969-1.7734q-11.82265-1.77341-29.72554-5.99578a80.38147,80.38147,0,0,1-10.13371,5.82688,17.75761,17.75761,0,0,1-7.0936,1.9423q-5.91132,0-9.03589-4.13793T3345.27839,3100.18427Z" transform="translate(-2604.638 -2869.945)" />
	<path d="M3665.33469,3090.895a101.734,101.734,0,0,1-30.14778,19.08515,88.69944,88.69944,0,0,1-33.52569,6.58691q-25.16536,0-40.61928-14.0183t-15.4539-36.48135q0-26.68543,20.52076-41.37931t57.67769-14.69388a156.57319,156.57319,0,0,1,19.76073,1.26671,165.18925,165.18925,0,0,1,20.43631,3.969v-1.18227q0-19.42293-9.28923-28.71217t-28.88107-9.28923q-13.17383,0-29.38776,7.09359t-21.44968,7.0936a9.99477,9.99477,0,0,1-8.107-3.969,15.73773,15.73773,0,0,1-3.209-10.21815q0-9.96481,18.66291-16.88952t47.71288-6.9247q29.72555,0,44.92611,15.11612t15.20056,44.67276v76.5095h8.27586q11.99155,0,16.045,2.53343t4.05348,9.12034q0,6.08022-3.3779,9.12034t-10.13371,3.04011h-26.51654a10.85976,10.85976,0,0,1-7.76917-2.87122,14.75858,14.75858,0,0,1-4.05349-8.27586Zm-1.35116-53.202a121.56256,121.56256,0,0,0-17.98733-4.47572,106.14982,106.14982,0,0,0-17.31175-1.43561q-26.00987,0-41.04152,8.78255t-15.03167,23.64532q0,11.48487,9.37368,18.91626t23.89866,7.43138a74.71976,74.71976,0,0,0,39.77481-11.23152q18.32513-11.23153,18.32512-23.392Z" transform="translate(-2604.638 -2869.945)" />
	<path d="M3803.322,3047.65788V3097.482q0,6.75581-2.78677,10.80929a8.39867,8.39867,0,0,1-7.178,4.05348h-31.2456q-6.58691,0-9.96481-3.04011t-3.37791-9.12034q0-6.75581,3.969-9.20479t16.974-2.449h8.107V2915.58188h-6.9247q-14.525,0-18.74736-2.61788t-4.22238-9.54257q0-6.08023,3.46235-9.12034t10.04926-3.04012h32.259a11.80971,11.80971,0,0,1,7.0936,1.85785,5.949,5.949,0,0,1,2.53343,5.06686v121.09781l48.81069-40.87262a23.36343,23.36343,0,0,1-8.19141-5.23575,9.70094,9.70094,0,0,1-2.61788-6.75581,8.58637,8.58637,0,0,1,3.7157-7.60028q3.71568-2.53343,10.80929-2.53342H3901.619q6.418,0,9.79592,2.87121t3.3779,8.61366q0,10.1337-16.38283,11.82266-3.209.33779-5.06685.67558a43.62232,43.62232,0,0,0-15.20057,5.32019A91.32283,91.32283,0,0,0,3861.422,2997.496l-24.48979,21.44968,64.01126,69.5848h14.525q7.26249,0,10.387,2.70233t3.12456,8.95144q0,5.91132-3.46235,9.03589t-10.04926,3.12456h-45.77058q-7.43139,0-10.80929-2.53343t-3.37791-8.107a10.72187,10.72187,0,0,1,3.29346-7.85362q3.29346-3.29346,9.88037-5.3202l-50.16186-54.722Z" transform="translate(-2604.638 -2869.945)" />
	<path d="M4080.479,3090.895a101.73418,101.73418,0,0,1-30.14779,19.08515,88.69935,88.69935,0,0,1-33.52568,6.58691q-25.16538,0-40.61928-14.0183t-15.45391-36.48135q0-26.68543,20.52076-41.37931t57.67769-14.69388a156.57319,156.57319,0,0,1,19.76073,1.26671,165.18939,165.18939,0,0,1,20.43632,3.969v-1.18227q0-19.42293-9.28924-28.71217t-28.88107-9.28923q-13.17381,0-29.38775,7.09359t-21.44969,7.0936a9.99476,9.99476,0,0,1-8.107-3.969,15.73774,15.73774,0,0,1-3.209-10.21815q0-9.96481,18.66291-16.88952t47.71288-6.9247q29.72555,0,44.92611,15.11612t15.20056,44.67276v76.5095h8.27587q11.99156,0,16.045,2.53343t4.05349,9.12034q0,6.08022-3.37791,9.12034t-10.1337,3.04011h-26.51654a10.85979,10.85979,0,0,1-7.76918-2.87122,14.75857,14.75857,0,0,1-4.05348-8.27586Zm-1.35116-53.202a121.56268,121.56268,0,0,0-17.98734-4.47572,106.14973,106.14973,0,0,0-17.31175-1.43561q-26.00985,0-41.04152,8.78255t-15.03167,23.64532q0,11.48487,9.37368,18.91626t23.89867,7.43138a74.71973,74.71973,0,0,0,39.7748-11.23152q18.32513-11.23153,18.32513-23.392Z" transform="translate(-2604.638 -2869.945)" />
	<path d="M4203.26573,3088.5305h21.11189q9.12034,0,13.00493,2.70233t3.88458,8.95144q0,6.9247-3.63124,9.54257t-15.96059,2.61788h-50.16186q-6.08022,0-9.12034-3.04011t-3.04011-9.12034q0-6.75581,3.46235-9.20479t13.42716-2.449h3.209V2936.356h-4.22238q-14.1872,0-19.1696-2.70232t-4.9824-9.45813q0-6.24912,4.30682-9.03589t13.93385-2.78677q6.75581-.3378,10.13371-.33779h15.87615q7.76917,0,10.89373,1.7734t7.34694,9.03589l85.12315,146.93877V2936.356H4280.113q-9.12034,0-13.25827-2.95567t-4.13793-9.20478q0-6.9247,3.5468-9.54258t14.86277-2.61787h48.4729q6.08024,0,9.0359,3.04011t2.95566,9.12034q0,6.7558-3.63125,9.45813t-13.25826,2.70232h-2.02675v170.07741q0,4.898-2.28008,6.7558t-10.55595,1.85785q-8.27586,0-10.21815-.92892t-6.50247-8.6981l-89.85221-154.87685Z" transform="translate(-2604.638 -2869.945)" />
	<path class="cls-1" d="M2664.638,3009.945a60,60,0,1,0,60,60A59.99617,59.99617,0,0,0,2664.638,3009.945Zm0,100a40,40,0,1,1,40-40A40.0019,40.0019,0,0,1,2664.638,3109.945Z" transform="translate(-2604.638 -2869.945)" />
	<path class="cls-2" d="M2664.638,2869.945a60,60,0,1,0,60,60A59.99617,59.99617,0,0,0,2664.638,2869.945Zm0,100a40,40,0,1,1,40-40A40.0019,40.0019,0,0,1,2664.638,2969.945Z" transform="translate(-2604.638 -2869.945)" />
	<path d="M2804.638,3009.945a60,60,0,1,0,60,60A59.99617,59.99617,0,0,0,2804.638,3009.945Zm0,100a40,40,0,1,1,40-40A40.0019,40.0019,0,0,1,2804.638,3109.945Z" transform="translate(-2604.638 -2869.945)" />
	<path class="cls-3" d="M2804.638,2869.945a60,60,0,1,0,60,60A59.99617,59.99617,0,0,0,2804.638,2869.945Zm0,100a40,40,0,1,1,40-40A40.0019,40.0019,0,0,1,2804.638,2969.945Z" transform="translate(-2604.638 -2869.945)" />
	<path d="M2734.638,2964.945a35,35,0,1,0,35,35A34.99985,34.99985,0,0,0,2734.638,2964.945Zm0,50a15,15,0,1,1,15-15A15.00543,15.00543,0,0,1,2734.638,3014.945Z" transform="translate(-2604.638 -2869.945)" />
</svg>
