<svg id="logomns" data-name="frame" xmlns="http://www.w3.org/2000/svg" viewBox="0 0 48.25 6.5"><defs><style>.cls-1{fill:#0a0;}.cls-2{fill:#f55;}.cls-3{fill:#55f;}</style></defs><path d="M5018.92751,3085.85492a3.46032,3.46032,0,0,1-.77691,2.11119,2.68142,2.68142,0,0,1-1.92541.59113,2.597,2.597,0,0,1-2.11119-.82758,4.57878,4.57878,0,0,1-.79381-2.68543l-.43912-7.83674v-.608a3.35762,3.35762,0,0,1,.62491-2.297,2.72552,2.72552,0,0,1,2.07741-.67558q2.02674,0,2.905,2.905a12.98921,12.98921,0,0,0,.77691,2.19564,8.08932,8.08932,0,0,0,3.73259,3.64813,13.42359,13.42359,0,0,0,6.09711,1.28361,11.40513,11.40513,0,0,0,7.07671-2.06053,6.33957,6.33957,0,0,0,2.71921-5.26952,5.70312,5.70312,0,0,0-1.67206-4.28994,8.63154,8.63154,0,0,0-4.88107-2.0943l-4.9993-.67558q-6.99225-.97959-10.20127-3.68191a9.38987,9.38987,0,0,1-3.209-7.60029,10.8216,10.8216,0,0,1,4.273-8.68121,16.2259,16.2259,0,0,1,10.65729-3.513,16.95658,16.95658,0,0,1,3.91837.4898,33.33372,33.33372,0,0,1,4.6615,1.53695,1.80108,1.80108,0,0,1,.54047-1.35117,2.68371,2.68371,0,0,1,1.62139-.37156,3.53578,3.53578,0,0,1,2.06052.43912,2.98592,2.98592,0,0,1,.70936,2.0943l.47291,7.05982v.33779a2.45282,2.45282,0,0,1-.67558,1.841,2.59581,2.59581,0,0,1-1.89163.65869q-1.79029,0-2.76988-2.49965a9.26748,9.26748,0,0,0-.94581-2.12808,7.13609,7.13609,0,0,0-3.209-2.601,11.8208,11.8208,0,0,0-4.76284-.912,10.34843,10.34843,0,0,0-6.63758,2.02674,6.45164,6.45164,0,0,0-2.55032,5.30331,4.86093,4.86093,0,0,0,1.90851,4.05349,12.247,12.247,0,0,0,5.82689,2.02674l5.40464.67558q5.87755.77691,8.85011,3.59746a10.0022,10.0022,0,0,1,2.97255,7.61717,11.13869,11.13869,0,0,1-4.22238,9.10345q-4.22238,3.42858-11.28219,3.42857a20.6756,20.6756,0,0,1-4.8304-.57424A28.93952,28.93952,0,0,1,5018.92751,3085.85492Z" transform="translate(-4658.36312 -3038.55724)"/><path d="M4750.722,3068.22227q0-4.76285-.85573-6.43491a3.04211,3.04211,0,0,0-2.95-1.67206,4.54818,4.54818,0,0,0-3.95214,2.16186,10.50363,10.50363,0,0,0-1.46376,5.94511v14.05208h.60239a5.1566,5.1566,0,0,1,2.73047.48979,2.129,2.129,0,0,1,.68684,1.841,2.56856,2.56856,0,0,1-.57424,1.82407,2.30929,2.30929,0,0,1-1.75651.608h-4.28994a2.38559,2.38559,0,0,1-1.97607-.67558,5.29349,5.29349,0,0,1-.52357-2.905v-17.8691a6.33746,6.33746,0,0,0-1.14849-4.00282,3.77088,3.77088,0,0,0-3.14145-1.46939,4.72348,4.72348,0,0,0-2.78677.89515,7.248,7.248,0,0,0-2.17875,2.65165v18.61225h1.23857a5.0439,5.0439,0,0,1,2.71921.50668,2.1093,2.1093,0,0,1,.70373,1.82407,2.52564,2.52564,0,0,1-.57425,1.90851,3.33606,3.33606,0,0,1-2.19.52358h-8.9627a2.72131,2.72131,0,0,1-1.93667-.59113,2.427,2.427,0,0,1-.62491-1.841,1.99871,1.99871,0,0,1,.78818-1.841,6.47015,6.47015,0,0,1,3.06826-.48979h.67v-21.68614h-.60239a6.63468,6.63468,0,0,1-3.20338-.53484,2.04966,2.04966,0,0,1-.85574-1.88036,2.21412,2.21412,0,0,1,.67558-1.76214,3.03388,3.03388,0,0,1,2.02675-.5855h5.16819a2.01588,2.01588,0,0,1,1.46938.38845,2.77237,2.77237,0,0,1,.42224,1.6214,9.30138,9.30138,0,0,1,2.97819-2.18438,8.80441,8.80441,0,0,1,3.5862-.70373,6.91539,6.91539,0,0,1,3.90711,1.02463,5.97439,5.97439,0,0,1,2.28572,3.10767,9.35211,9.35211,0,0,1,3.27656-3.12456,8.84294,8.84294,0,0,1,4.26179-1.00774q4.3575,0,6.373,2.83744,2.00985,2.83745,2.00985,9.1879v15.3019h.53483a5.197,5.197,0,0,1,2.78114.50668,2.10927,2.10927,0,0,1,.70373,1.82407,2.47738,2.47738,0,0,1-.608,1.82407,2.42736,2.42736,0,0,1-1.79029.608h-4.08726a2.38681,2.38681,0,0,1-1.993-.8107,4.135,4.135,0,0,1-.64181-2.5672Z" transform="translate(-4658.36312 -3038.55724)"/><path d="M4782.84588,3082.27435H4793.689a2.85787,2.85787,0,0,1,1.94229.55735,2.2639,2.2639,0,0,1,.62492,1.7734,2.47919,2.47919,0,0,1-.59114,1.90851,3.36251,3.36251,0,0,1-2.17875.52358h-26.17874a2.94655,2.94655,0,0,1-2.02674-.608,2.33006,2.33006,0,0,1-.67558-1.82407,2.12588,2.12588,0,0,1,.70935-1.75651,3.33288,3.33288,0,0,1,2.12808-.57424h10.30261v-21.68614h-6.60943a3.2136,3.2136,0,0,1-2.12245-.61928,2.23721,2.23721,0,0,1-.72625-1.79592,2.21408,2.21408,0,0,1,.67558-1.76214,3.03387,3.03387,0,0,1,2.02674-.5855h9.89726a2.4419,2.4419,0,0,1,1.43561.37157,1.17772,1.17772,0,0,1,.52357,1.01337Zm-6.24912-36.17734q0-3.64813.65869-4.59395t2.82055-.94582a3.611,3.611,0,0,1,2.76988.79381q.67558.79381.67558,3.76636,0,2.905-.62491,3.59747t-2.82055.69247a4.26571,4.26571,0,0,1-2.82055-.6418A3.84042,3.84042,0,0,1,4776.59676,3046.097Z" transform="translate(-4658.36312 -3038.55724)"/><path d="M4806.4912,3084.6051v-6.01267a3.23569,3.23569,0,0,1,.55735-2.12808,2.2768,2.2768,0,0,1,1.80718-.6418q1.38495,0,2.19564,1.89163a9.86449,9.86449,0,0,0,.97959,1.72273,9.65689,9.65689,0,0,0,4.1886,2.92188,16.45555,16.45555,0,0,0,6.114,1.09782,10.13855,10.13855,0,0,0,5.74243-1.4525,4.41634,4.41634,0,0,0,2.16186-3.817,3.62822,3.62822,0,0,0-1.73962-3.41168q-1.73962-1.01337-5.962-1.01337h-1.85785q-6.89091,0-10.50527-2.39831a7.83643,7.83643,0,0,1-3.61436-6.95848,7.9637,7.9637,0,0,1,3.52991-6.9247q3.5299-2.46587,9.91414-2.46587a20.37948,20.37948,0,0,1,5.30331.72625q2.70233.72624,2.83744.72625a3.63863,3.63863,0,0,0,1.41872-.65869,3.858,3.858,0,0,1,2.06052-.65869,1.90243,1.90243,0,0,1,1.70584.84447,4.64408,4.64408,0,0,1,.55735,2.53343v3.95214a4.72314,4.72314,0,0,1-.54046,2.5841,1.93473,1.93473,0,0,1-1.72273.79381q-1.01337,0-2.49965-1.72273a23.24856,23.24856,0,0,0-1.72273-1.79029,11.18418,11.18418,0,0,0-3.817-2.38142,14.12073,14.12073,0,0,0-4.76284-.72625,8.55263,8.55263,0,0,0-5.11753,1.40183,4.23545,4.23545,0,0,0-1.94229,3.56369,3.12291,3.12291,0,0,0,1.993,3.04011q1.993.912,8.57988,1.04715,7.026.16888,10.26882,2.449t3.24279,7.04292a8.7222,8.7222,0,0,1-3.58058,7.29627q-3.58057,2.73611-9.6608,2.73611a29.15376,29.15376,0,0,1-4.28994-.35468q-2.36453-.35469-5.94511-1.19916a16.07731,16.07731,0,0,1-2.02674,1.16538,3.55157,3.55157,0,0,1-1.41872.38846,2.12662,2.12662,0,0,1-1.80718-.82759A3.8965,3.8965,0,0,1,4806.4912,3084.6051Z" transform="translate(-4658.36312 -3038.55724)"/><path d="M4870.50246,3082.74725a20.34676,20.34676,0,0,1-6.02956,3.817,17.73971,17.73971,0,0,1-6.70513,1.31738,11.6258,11.6258,0,0,1-8.12386-2.80366,9.39175,9.39175,0,0,1-3.09078-7.29627,9.58732,9.58732,0,0,1,4.10415-8.27586q4.10415-2.93877,11.53554-2.93877a31.31369,31.31369,0,0,1,3.95215.25334,33.0368,33.0368,0,0,1,4.08726.79381v-.23646q0-3.88458-1.85785-5.74243t-5.77621-1.85785a14.85373,14.85373,0,0,0-5.87755,1.41872,14.40331,14.40331,0,0,1-4.28994,1.41872,1.99893,1.99893,0,0,1-1.62139-.79381,3.14752,3.14752,0,0,1-.6418-2.04363q0-1.993,3.73258-3.3779a27.80968,27.80968,0,0,1,9.54257-1.38494q5.94511,0,8.98523,3.02322t3.04011,8.93456v15.3019h1.65517a6.78748,6.78748,0,0,1,3.209.50668,1.97841,1.97841,0,0,1,.81069,1.82407,2.33006,2.33006,0,0,1-.67558,1.82407,2.94655,2.94655,0,0,1-2.02674.608h-5.30331a2.172,2.172,0,0,1-1.55383-.57424,2.95176,2.95176,0,0,1-.8107-1.65518Zm-.27023-10.64039a24.31292,24.31292,0,0,0-3.59747-.89515,21.23031,21.23031,0,0,0-3.46235-.28712,16.27912,16.27912,0,0,0-8.2083,1.75651,5.31,5.31,0,0,0-3.00634,4.72907,4.6244,4.6244,0,0,0,1.87474,3.78325,7.45716,7.45716,0,0,0,4.77973,1.48627,14.9439,14.9439,0,0,0,7.955-2.2463q3.665-2.24631,3.665-4.6784Z" transform="translate(-4658.36312 -3038.55724)"/><path d="M4898.09993,3074.09982v9.96481a3.75225,3.75225,0,0,1-.55736,2.16186,1.67972,1.67972,0,0,1-1.43561.8107h-6.24912a2.89071,2.89071,0,0,1-1.993-.608,2.33006,2.33006,0,0,1-.67558-1.82407,1.98894,1.98894,0,0,1,.79381-1.841,7.52666,7.52666,0,0,1,3.39479-.48979h1.62139v-34.58973h-1.38494a8.43094,8.43094,0,0,1-3.74947-.52357,2.064,2.064,0,0,1-.84447-1.90852,2.29928,2.29928,0,0,1,.69247-1.82407,2.95769,2.95769,0,0,1,2.00985-.608h6.45179a2.36194,2.36194,0,0,1,1.41872.37157,1.18978,1.18978,0,0,1,.50669,1.01337v24.21956l9.76214-8.17452a4.67265,4.67265,0,0,1-1.63829-1.04715,1.94019,1.94019,0,0,1-.52357-1.35116,1.71727,1.71727,0,0,1,.74314-1.52006,3.83393,3.83393,0,0,1,2.16186-.50668h9.15411a2.94755,2.94755,0,0,1,1.95919.57424,2.13533,2.13533,0,0,1,.67558,1.72273q0,2.02674-3.27657,2.36453-.6418.06756-1.01337.13512a8.7242,8.7242,0,0,0-3.04011,1.064,18.26449,18.26449,0,0,0-3.34413,2.38142l-4.898,4.28994,12.80226,13.917h2.905a3.17009,3.17009,0,0,1,2.07741.54046,2.25572,2.25572,0,0,1,.62491,1.79029,2.30923,2.30923,0,0,1-.69247,1.80718,2.90411,2.90411,0,0,1-2.00985.62491h-9.15411a3.63932,3.63932,0,0,1-2.16186-.50669,1.89451,1.89451,0,0,1-.67558-1.62139,2.14438,2.14438,0,0,1,.65869-1.57073,4.7235,4.7235,0,0,1,1.97607-1.064L4901.14,3071.32994Z" transform="translate(-4658.36312 -3038.55724)"/><path d="M4953.53131,3082.74725a20.34672,20.34672,0,0,1-6.02955,3.817,17.7398,17.7398,0,0,1-6.70514,1.31738,11.62582,11.62582,0,0,1-8.12386-2.80366,9.39175,9.39175,0,0,1-3.09078-7.29627,9.58732,9.58732,0,0,1,4.10415-8.27586q4.10416-2.93877,11.53554-2.93877a31.31358,31.31358,0,0,1,3.95215.25334,33.0368,33.0368,0,0,1,4.08726.79381v-.23646q0-3.88458-1.85785-5.74243t-5.77621-1.85785a14.85376,14.85376,0,0,0-5.87755,1.41872,14.40331,14.40331,0,0,1-4.28994,1.41872,1.99894,1.99894,0,0,1-1.62139-.79381,3.14752,3.14752,0,0,1-.6418-2.04363q0-1.993,3.73258-3.3779a27.80974,27.80974,0,0,1,9.54258-1.38494q5.9451,0,8.98522,3.02322t3.04011,8.93456v15.3019h1.65517a6.78743,6.78743,0,0,1,3.209.50668,1.97839,1.97839,0,0,1,.8107,1.82407,2.3301,2.3301,0,0,1-.67558,1.82407,2.94658,2.94658,0,0,1-2.02674.608h-5.30331a2.172,2.172,0,0,1-1.55384-.57424,2.95169,2.95169,0,0,1-.81069-1.65518Zm-.27023-10.64039a24.31261,24.31261,0,0,0-3.59747-.89515,21.23031,21.23031,0,0,0-3.46235-.28712,16.27912,16.27912,0,0,0-8.2083,1.75651,5.31,5.31,0,0,0-3.00633,4.72907,4.62439,4.62439,0,0,0,1.87473,3.78325,7.45719,7.45719,0,0,0,4.77974,1.48627,14.94393,14.94393,0,0,0,7.955-2.2463q3.665-2.24631,3.665-4.6784Z" transform="translate(-4658.36312 -3038.55724)"/><path d="M4978.08867,3082.27435h4.22238a4.71148,4.71148,0,0,1,2.601.54046,2.02529,2.02529,0,0,1,.77692,1.79029,2.20587,2.20587,0,0,1-.72625,1.90851,6.25031,6.25031,0,0,1-3.19212.52358h-10.03237a2.14968,2.14968,0,0,1-2.43209-2.43209,2.11518,2.11518,0,0,1,.69247-1.841,5.05946,5.05946,0,0,1,2.68543-.48979h.6418v-30.43491h-.84447a9.08989,9.08989,0,0,1-3.83392-.54046,1.96685,1.96685,0,0,1-.99648-1.89163,1.99118,1.99118,0,0,1,.86136-1.80718,5.30253,5.30253,0,0,1,2.78677-.55735q1.35117-.06756,2.02674-.06756h3.17523a4.76155,4.76155,0,0,1,2.17875.35468,5.03086,5.03086,0,0,1,1.46939,1.80718l17.02463,29.38775v-26.68543h-3.71569a4.64088,4.64088,0,0,1-2.65166-.59113,2.10832,2.10832,0,0,1-.82758-1.841,2.23231,2.23231,0,0,1,.70936-1.90851,5.58122,5.58122,0,0,1,2.97255-.52358h9.69458a2.41727,2.41727,0,0,1,1.80718.608,2.5213,2.5213,0,0,1,.59113,1.82407,2.2122,2.2122,0,0,1-.72625,1.89163,4.67987,4.67987,0,0,1-2.65165.54046h-.40535v34.01548a1.66778,1.66778,0,0,1-.456,1.35116,3.81443,3.81443,0,0,1-2.11119.37157,6.42432,6.42432,0,0,1-2.04363-.18578,5.34094,5.34094,0,0,1-1.30049-1.73962l-17.97044-30.97537Z" transform="translate(-4658.36312 -3038.55724)"/><path class="cls-1" d="M4670.36312,3066.55724a12,12,0,1,0,12,12A11.99923,11.99923,0,0,0,4670.36312,3066.55724Zm0,20a8,8,0,1,1,8-8A8.00038,8.00038,0,0,1,4670.36312,3086.55724Z" transform="translate(-4658.36312 -3038.55724)"/><path class="cls-2" d="M4670.36312,3038.55724a12,12,0,1,0,12,12A11.99923,11.99923,0,0,0,4670.36312,3038.55724Zm0,20a8,8,0,1,1,8-8A8.00038,8.00038,0,0,1,4670.36312,3058.55724Z" transform="translate(-4658.36312 -3038.55724)"/><path d="M4698.36312,3066.55724a12,12,0,1,0,12,12A11.99923,11.99923,0,0,0,4698.36312,3066.55724Zm0,20a8,8,0,1,1,8-8A8.00038,8.00038,0,0,1,4698.36312,3086.55724Z" transform="translate(-4658.36312 -3038.55724)"/><path class="cls-3" d="M4698.36312,3038.55724a12,12,0,1,0,12,12A11.99923,11.99923,0,0,0,4698.36312,3038.55724Zm0,20a8,8,0,1,1,8-8A8.00038,8.00038,0,0,1,4698.36312,3058.55724Z" transform="translate(-4658.36312 -3038.55724)"/><path d="M4684.36312,3057.55724a7,7,0,1,0,7,7A7,7,0,0,0,4684.36312,3057.55724Zm0,10a3,3,0,1,1,3-3A3.00109,3.00109,0,0,1,4684.36312,3067.55724Z" transform="translate(-4658.36312 -3038.55724)"/></svg>